<?xml version="1.0" encoding="UTF-8"?>
<svg version="1.1" xmlns="http://www.w3.org/2000/svg" width="3140" height="1305">
<path d="M0 0 C2.6751454 -0.00461318 5.35024538 -0.01080576 8.02537823 -0.01890898 C13.82430249 -0.0332934 19.62307755 -0.03295616 25.42200851 -0.02272034 C34.04544203 -0.00754057 42.66875054 -0.0153511 51.29218331 -0.02755357 C66.69688328 -0.04858154 82.10151675 -0.04680494 97.50622299 -0.03523792 C110.98734059 -0.02516529 124.46843385 -0.02255373 137.94955444 -0.02732849 C139.29227156 -0.0277868 139.29227156 -0.0277868 140.66211428 -0.02825437 C144.29603782 -0.02949978 147.92996135 -0.03077338 151.56388487 -0.03209343 C185.63465436 -0.04432223 219.70538158 -0.033247 253.77614455 -0.01170584 C284.02860144 0.00727579 314.28099097 0.00557724 344.53344727 -0.0135498 C378.54294397 -0.03498049 412.55240334 -0.04345488 446.56190586 -0.03110075 C450.18910789 -0.02981793 453.81630992 -0.02856657 457.44351196 -0.02732849 C458.33658462 -0.02701218 459.22965728 -0.02669587 460.14979275 -0.02636998 C473.62057319 -0.02182511 487.09132658 -0.02713182 500.56210327 -0.0372467 C515.88300934 -0.04869363 531.20383868 -0.04580335 546.52473521 -0.02412373 C555.09336127 -0.01239792 563.66182107 -0.01158377 572.23044273 -0.02670843 C577.96067499 -0.03570528 583.6907745 -0.03004668 589.42098716 -0.01268935 C592.68136905 -0.00321377 595.94135842 -0.00206052 599.20174062 -0.01431328 C623.26474149 -0.09779011 643.56777322 3.08075198 661.6965332 20.50793457 C667.24878705 26.1958298 671.43726345 32.3548796 675.0715332 39.38293457 C675.393396 39.99403076 675.71525879 40.60512695 676.046875 41.23474121 C681.46347618 52.32724132 682.13676292 64.08986318 682.07684994 76.21220112 C682.08028961 77.7676317 682.08504054 79.32305983 682.0909709 80.87848291 C682.10342858 85.13675385 682.09735409 89.3948233 682.08813723 93.65309496 C682.08140985 98.2919098 682.09210235 102.93069069 682.10053307 107.56949824 C682.11289384 115.69448166 682.11411494 123.81940733 682.10798264 131.94439697 C682.09888793 144.02674809 682.10692656 156.10904583 682.11827388 168.19139285 C682.13794133 189.77196032 682.14028803 211.35250378 682.13507868 232.93307808 C682.13052168 251.82046218 682.13112046 270.70783677 682.13691902 289.59522057 C682.13767589 292.12865122 682.13843187 294.66208187 682.13918697 297.19551253 C682.14033216 301.01315847 682.14148204 304.83080441 682.14264621 308.64845034 C682.1533515 344.14224809 682.15810771 379.63604329 682.15017605 415.1298418 C682.15002774 415.79864116 682.14987944 416.46744051 682.14972664 417.15650651 C682.14806769 424.61402206 682.14631811 432.0715376 682.14453363 439.52905313 C682.14429209 440.5389739 682.14429209 440.5389739 682.14404567 441.56929711 C682.14273813 447.03251241 682.14273813 447.03251241 682.14208448 449.73767606 C682.13169349 492.80181739 682.13945967 535.86591785 682.16308594 578.93005371 C682.16902954 589.78143462 682.17492118 600.63281555 682.18049526 611.48419666 C682.18083903 612.15239456 682.1811828 612.82059245 682.18153699 613.50903877 C682.19998727 649.60181642 682.20028621 685.69459414 682.19489819 721.78737563 C682.19418213 726.86465084 682.19350774 731.94192606 682.19285774 737.01920128 C682.19268793 738.26935234 682.19251812 739.5195034 682.19234317 740.80753783 C682.19004002 759.68039958 682.19801795 778.55323918 682.21114922 797.42609596 C682.22605611 818.88921996 682.22690942 840.35229206 682.2090783 861.81541494 C682.19951147 873.82535156 682.20095807 885.83516712 682.21831299 897.84509567 C682.22879973 905.87054835 682.2247059 913.8959088 682.20883296 921.92135239 C682.20019894 926.49183686 682.19778199 931.06208411 682.21310227 935.63255642 C682.22693407 939.79837113 682.2220421 943.96374668 682.20281709 948.12953618 C682.19911087 949.61951829 682.20195496 951.10953659 682.21253017 952.59948578 C682.35676806 974.44337312 675.54465175 991.88528405 660.4934082 1007.84387207 C642.17159496 1025.61967101 620.54571238 1027.10663551 596.31713867 1027.01586914 C593.63374373 1027.02048228 590.95039407 1027.02667484 588.26701164 1027.03477812 C582.45006276 1027.04916292 576.63326262 1027.04882506 570.81630707 1027.03858948 C562.16607117 1027.02341005 553.5159599 1027.03122006 544.86572474 1027.04342271 C529.41316839 1027.06445095 513.96067832 1027.06267397 498.50811571 1027.05110706 C484.98511936 1027.04103452 471.46214728 1027.03842283 457.93914795 1027.04319763 C457.04123051 1027.04350317 456.14331307 1027.04380871 455.21818601 1027.04412351 C451.57300857 1027.04536892 447.92783115 1027.04664252 444.28265374 1027.04796257 C410.10620962 1027.06019143 375.92980764 1027.04911604 341.75337002 1027.02757498 C311.40692788 1027.00859335 281.06055288 1027.01029189 250.71411133 1027.02941895 C216.59913923 1027.05084953 182.48420435 1027.05932408 148.36922646 1027.04696989 C144.73079046 1027.04568707 141.09235446 1027.04443571 137.45391846 1027.04319763 C136.5580795 1027.04288132 135.66224053 1027.04256501 134.73925494 1027.04223912 C121.22661139 1027.0376942 107.71399479 1027.04300105 94.20135498 1027.05311584 C78.83287186 1027.06456265 63.46446523 1027.06167274 48.09599161 1027.03999287 C39.50070431 1027.02826686 30.90558276 1027.0274532 22.31029984 1027.04257757 C16.56229598 1027.05157417 10.81442446 1027.04591626 5.06644014 1027.02855849 C1.79590824 1027.01908257 -1.47423234 1027.01793018 -4.74476457 1027.03018242 C-29.64457211 1027.11629078 -48.70037465 1023.34378586 -67.41674805 1005.49230957 C-78.92952296 993.42066209 -86.4212682 976.86165576 -86.43226796 960.09490359 C-86.43554016 958.78883452 -86.43881235 957.48276544 -86.4421837 956.13711852 C-86.44077365 954.68649804 -86.43927164 953.23587764 -86.43768787 951.78525734 C-86.43964091 950.23885086 -86.4420298 948.69244487 -86.44481584 947.14603966 C-86.451225 942.87558893 -86.45137674 938.60515699 -86.45053844 934.33470236 C-86.45070775 929.69654925 -86.45661188 925.0584029 -86.4617793 920.42025316 C-86.47111406 911.21148626 -86.47502882 902.00272416 -86.47729826 892.79395312 C-86.48025806 881.76740931 -86.48895418 870.74087189 -86.49771254 859.71433143 C-86.51856729 833.06001402 -86.52902843 806.40569549 -86.53784215 779.75137182 C-86.54204727 767.14438896 -86.54726944 754.53740657 -86.55252668 741.9304241 C-86.57013749 699.46033288 -86.58519036 656.99024124 -86.59249692 614.52014693 C-86.59308088 611.13455361 -86.59367815 607.7489603 -86.59427453 604.36336698 C-86.59439265 603.69177537 -86.59451077 603.02018375 -86.59463247 602.32824088 C-86.59582985 595.52411921 -86.59703861 588.71999755 -86.598265 581.91587589 C-86.59851024 580.55163371 -86.59875409 579.18739153 -86.59899657 577.82314935 C-86.60678474 534.01742075 -86.62916422 490.21171895 -86.661673 446.40600207 C-86.69652725 399.42392347 -86.717149 352.44186141 -86.72049111 305.4597677 C-86.72090866 300.37761139 -86.72138822 295.29545509 -86.72191429 290.2132988 C-86.72203748 288.96190831 -86.72216067 287.71051782 -86.7222876 286.42120641 C-86.72462042 266.27587529 -86.740285 246.13057558 -86.76075614 225.98525566 C-86.78100467 205.73784674 -86.78649603 185.49047558 -86.7769855 165.2430584 C-86.77176675 153.21295154 -86.77766582 141.18297036 -86.79952018 129.15288158 C-86.81301906 121.11498522 -86.81195927 113.07717547 -86.79911822 105.03927827 C-86.7922156 100.46071817 -86.79157252 95.8823985 -86.80867831 91.30385979 C-86.82413816 87.13179939 -86.82090224 82.96017156 -86.80326803 78.7881236 C-86.80013939 77.29473546 -86.80359361 75.80131375 -86.81475977 74.30796408 C-86.95747316 53.87729487 -80.67395212 35.43201805 -66.3034668 20.50793457 C-46.98600863 1.90704363 -25.44932678 -0.09564046 0 0 Z " fill="#B200FE" transform="translate(295.303466796875,208.4920654296875)"/>
<path d="M0 0 C161.04 0 322.08 0 488 0 C488 38.94 488 77.88 488 118 C371.84 118 255.68 118 136 118 C136 180.04 136 242.08 136 306 C246.22 306 356.44 306 470 306 C470 346.59 470 387.18 470 429 C359.45 429 248.9 429 135 429 C135 532.62 135 636.24 135 743 C90.45 743 45.9 743 0 743 C0 497.81 0 252.62 0 0 Z " fill="#1E1E1E" transform="translate(349,349)"/>
<path d="M0 0 C19.8 0 39.6 0 60 0 C71.31471835 31.68121138 71.31471835 31.68121138 75.3125 43.875 C76.30329757 46.87198824 77.29793933 49.86769569 78.29296875 52.86328125 C78.5652832 53.68354294 78.83759766 54.50380463 79.11816406 55.34892273 C83.03203066 67.12400282 86.98954595 78.88447342 90.95840931 90.64111328 C92.16113388 94.20385954 93.36230728 97.76710955 94.55947876 101.33172607 C95.698085 104.72176579 96.84095015 108.11033988 97.98703575 111.49785805 C98.62032314 113.3731723 99.24926986 115.2499506 99.87812805 117.12675476 C100.26010849 118.25289688 100.64208893 119.379039 101.03564453 120.53930664 C101.36807159 121.52548477 101.70049866 122.5116629 102.04299927 123.52772522 C102.97184033 126.19277178 102.97184033 126.19277178 105 129 C108.39215438 118.55979711 111.78251121 108.1190114 115.17144012 97.67776108 C115.72199388 95.98152614 116.27257658 94.28530059 116.82318878 92.58908463 C124.72861755 68.23496337 132.59850416 43.8704259 140.3515625 19.46728516 C140.65712067 18.50773422 140.96267883 17.54818329 141.27749634 16.55955505 C141.83556045 14.80686144 142.39215388 13.05369847 142.9468689 11.29994202 C143.3122728 10.1531321 143.3122728 10.1531321 143.68505859 8.9831543 C143.89246674 8.32921188 144.09987488 7.67526947 144.31356812 7.00151062 C145.12450399 4.63696899 146.0716218 2.32094551 147 0 C166.8 0 186.6 0 207 0 C207 63.69 207 127.38 207 193 C193.8 193 180.6 193 167 193 C166.67 149.77 166.34 106.54 166 62 C157.24108985 86.8169121 148.54192678 111.64211321 140.06640625 136.5546875 C139.5430217 138.09298973 139.5430217 138.09298973 139.00906372 139.66236877 C137.2696029 144.77587001 135.53152906 149.88983609 133.79589844 155.00463867 C130.58220668 164.46937037 127.35223103 173.92842323 124.07421875 183.37109375 C123.7788472 184.22824478 123.48347565 185.08539581 123.17915344 185.96852112 C121.11606461 191.88393539 121.11606461 191.88393539 120 193 C117.55169574 193.08843793 115.13179401 193.11528752 112.68359375 193.09765625 C111.58701195 193.09553383 111.58701195 193.09553383 110.46827698 193.09336853 C108.12464368 193.08775408 105.78110461 193.07519922 103.4375 193.0625 C101.85221492 193.05748686 100.26692834 193.05292363 98.68164062 193.04882812 C94.7877239 193.03777997 90.89387795 193.02050572 87 193 C83.88192547 186.33611516 81.35063706 179.56257044 78.98046875 172.6015625 C78.60491852 171.50959061 78.22936829 170.41761871 77.84243774 169.29255676 C77.03803877 166.95230025 76.23543591 164.61142573 75.43447876 162.26998901 C73.74478236 157.33091144 72.04604178 152.39495985 70.34788513 147.45878601 C69.48428154 144.94812893 68.62113405 142.43731493 67.75843811 139.92634583 C64.1098549 129.3079024 60.43609754 118.69840729 56.7394104 108.09661865 C55.84924415 105.54291154 54.96107473 102.98851639 54.07299805 100.43408203 C49.82277919 88.24661809 45.41208751 76.13324065 41 64 C40.67 106.57 40.34 149.14 40 193 C26.8 193 13.6 193 0 193 C0 129.31 0 65.62 0 0 Z " fill="#DB00FF" transform="translate(2863,534)"/>
<path d="M0 0 C17.675625 -0.061875 35.35125 -0.12375 53.5625 -0.1875 C59.11650635 -0.21481201 64.6705127 -0.24212402 70.39282227 -0.27026367 C77.24401855 -0.28381348 77.24401855 -0.28381348 80.46470642 -0.28633118 C82.684899 -0.29089829 84.90508475 -0.30136595 87.12522888 -0.31672668 C109.82859865 -0.46577462 129.1316432 1.01878082 146.625 17 C157.3804688 28.16986515 160.43013014 42.02463079 160.36474609 57.04272461 C160.00784352 70.18681965 156.39089964 82.35101999 147 92 C136.72436116 101 136.72436116 101 131 101 C131 101.66 131 102.32 131 103 C131.66 103.04125 132.32 103.0825 133 103.125 C140.03202636 105.17600769 145.96111083 111.01603672 150 117 C156.88505462 129.56856231 157.6025164 142.51385853 158.60180664 156.48461914 C159.52104495 169.14411469 160.72132754 181.29895805 166 193 C159.91278769 193.07401212 153.82583574 193.12853646 147.73828125 193.16479492 C145.66629476 193.17990586 143.59434037 193.20039541 141.52246094 193.22631836 C138.54874767 193.26260051 135.57545627 193.27970298 132.6015625 193.29296875 C131.20618759 193.31619453 131.20618759 193.31619453 129.78262329 193.33988953 C128.49151138 193.34022942 128.49151138 193.34022942 127.17431641 193.34057617 C126.41486725 193.34723801 125.65541809 193.35389984 124.87295532 193.36076355 C124.25488007 193.24171158 123.63680481 193.12265961 123 193 C120.68263765 189.52395647 120.19427142 186.47036671 119.5625 182.4375 C119.37300781 181.27710205 119.37300781 181.27710205 119.1796875 180.09326172 C117.89157554 171.89430157 116.999547 163.64584504 116.17797852 155.38842773 C114.92288433 143.5149984 113.15347572 132.69642947 104.875 123.6875 C97.08427617 119.11468384 88.26586772 118.54459679 79.42578125 118.48828125 C78.49326538 118.47164429 77.56074951 118.45500732 76.59997559 118.43786621 C73.17103815 118.38074751 69.74172955 118.34798548 66.3125 118.3125 C58.619375 118.209375 50.92625 118.10625 43 118 C43 142.75 43 167.5 43 193 C28.81 193 14.62 193 0 193 C0 129.31 0 65.62 0 0 Z M43 34 C43 51.49 43 68.98 43 87 C51.683125 87.0825 60.36625 87.165 69.3125 87.25 C73.39105347 87.30462402 73.39105347 87.30462402 77.55200195 87.36035156 C79.73908705 87.37204847 81.92618095 87.38223791 84.11328125 87.390625 C85.77780334 87.4213208 85.77780334 87.4213208 87.47595215 87.45263672 C95.41295862 87.45614053 103.60776662 86.59418601 109.97261047 81.38580322 C115.67625868 75.51070198 117.15229153 68.46182782 117.375 60.5 C117.14289893 51.85171228 115.41485281 45.12974824 109 39 C103.08567937 35.25706281 97.55798505 33.86979001 90.56713867 33.88647461 C89.491698 33.88659546 88.41625732 33.88671631 87.30822754 33.88684082 C86.18944214 33.89195679 85.07065674 33.89707275 83.91796875 33.90234375 C82.88111938 33.90335083 81.84427002 33.90435791 80.77600098 33.90539551 C76.91315602 33.91061652 73.05032687 33.92457779 69.1875 33.9375 C60.545625 33.958125 51.90375 33.97875 43 34 Z " fill="#D000FF" transform="translate(2669,534)"/>
<path d="M0 0 C14.72462184 11.57782766 23.27945318 27.04986497 26.90625 45.28515625 C26.90625 47.26515625 26.90625 49.24515625 26.90625 51.28515625 C13.37625 51.28515625 -0.15375 51.28515625 -14.09375 51.28515625 C-16.07375 46.66515625 -18.05375 42.04515625 -20.09375 37.28515625 C-27.62723346 27.42515584 -35.05254747 22.3816946 -47.37109375 20.5625 C-61.78808495 19.09391123 -74.94118125 22.26818688 -86.5546875 31.171875 C-99.94026241 43.81380686 -104.44816564 62.42569621 -105.27734375 80.2265625 C-105.73494474 99.17581969 -102.58906498 118.37846469 -90.09375 133.28515625 C-79.68053195 143.66377889 -68.24231015 147.4543328 -53.90625 147.53515625 C-53.01099609 147.55578125 -52.11574219 147.57640625 -51.19335938 147.59765625 C-40.40510456 147.65997108 -30.18258371 144.5386987 -21.9296875 137.41796875 C-13.87373377 129.18098235 -11.54014513 119.29393432 -9.09375 108.28515625 C-22.95375 108.28515625 -36.81375 108.28515625 -51.09375 108.28515625 C-51.09375 97.72515625 -51.09375 87.16515625 -51.09375 76.28515625 C-24.36375 76.28515625 2.36625 76.28515625 29.90625 76.28515625 C29.90625 110.60515625 29.90625 144.92515625 29.90625 180.28515625 C20.66625 180.28515625 11.42625 180.28515625 1.90625 180.28515625 C1.41125 177.91328125 0.91625 175.54140625 0.40625 173.09765625 C0.24962891 172.3600708 0.09300781 171.62248535 -0.06835938 170.86254883 C-0.79997126 167.27948929 -1.26413305 163.94129249 -1.09375 160.28515625 C-2.0528125 161.27515625 -2.0528125 161.27515625 -3.03125 162.28515625 C-4.04738112 163.28993395 -5.06894892 164.2892228 -6.09375 165.28515625 C-6.72539063 165.90132812 -7.35703125 166.5175 -8.0078125 167.15234375 C-21.3790633 179.6483854 -37.28534624 185.67979192 -55.54296875 185.4296875 C-83.35027311 184.29781703 -105.94026447 175.18955067 -125.34375 155.03515625 C-145.29248949 132.20421252 -150.50517946 102.7936439 -149.09375 73.28515625 C-147.28153698 51.48589589 -139.6823996 31.5161243 -126.09375 14.28515625 C-125.42988281 13.42792969 -124.76601562 12.57070313 -124.08203125 11.6875 C-94.71239775 -23.79840295 -35.74235023 -25.98260654 0 0 Z " fill="#8F00FF" transform="translate(1495.09375,546.71484375)"/>
<path d="M0 0 C3.27623486 2.91612746 6.39450991 5.97472059 9.47265625 9.09765625 C10.14941406 9.76410156 10.82617188 10.43054688 11.5234375 11.1171875 C30.0904128 30.70854764 35.90566893 59.45247663 35.625 85.5546875 C34.37525715 114.61921982 24.52893018 140.85245152 3.28515625 161.28515625 C-16.61490682 178.72535042 -42.64161185 184.40394749 -68.51953125 182.859375 C-94.5185209 180.81725374 -116.08652191 169.68486439 -133.18359375 150.08984375 C-151.88725299 126.21150545 -157.31989701 95.12978354 -153.77734375 65.47265625 C-151.93643231 53.44880112 -149.22949944 41.92105097 -143.52734375 31.09765625 C-142.97433594 29.999375 -142.42132812 28.90109375 -141.8515625 27.76953125 C-131.26286921 7.49025506 -112.64689486 -8.16046772 -90.90234375 -15.27734375 C-88.78660647 -15.85413099 -86.66136948 -16.39740616 -84.52734375 -16.90234375 C-83.58503906 -17.12664063 -82.64273438 -17.3509375 -81.671875 -17.58203125 C-54.13456598 -22.89305782 -21.86533817 -18.61073632 0 0 Z M-96.65234375 33.22265625 C-106.3109889 44.60470672 -110.92270505 60.28400803 -111.52734375 75.09765625 C-111.57890625 76.0825 -111.63046875 77.06734375 -111.68359375 78.08203125 C-112.23212049 97.92041488 -108.22532916 118.3322569 -94.4296875 133.38671875 C-84.43636946 142.79841511 -73.18153662 146.50019651 -59.65234375 146.41015625 C-58.76756348 146.4045166 -57.8827832 146.39887695 -56.97119141 146.39306641 C-44.42306596 146.15927916 -33.81342366 141.76466416 -24.52734375 133.09765625 C-24.52734375 132.43765625 -24.52734375 131.77765625 -24.52734375 131.09765625 C-23.86734375 131.09765625 -23.20734375 131.09765625 -22.52734375 131.09765625 C-8.31577336 112.91257374 -5.71723618 89.95330129 -8.42407227 67.67358398 C-10.72791427 51.62095042 -16.54890445 36.53534288 -29.52734375 26.09765625 C-51.03468666 11.28821825 -78.91951108 14.61495897 -96.65234375 33.22265625 Z " fill="#C600FF" transform="translate(2605.52734375,548.90234375)"/>
<path d="M0 0 C14.52 0 29.04 0 44 0 C46.98304873 6.56270721 49.83298774 12.89124526 52.2421875 19.63671875 C52.5270401 20.42186859 52.8118927 21.20701843 53.1053772 22.01596069 C53.71507066 23.6973239 54.32289038 25.3793676 54.92895508 27.06204224 C56.57530518 31.63098243 58.23753847 36.19414527 59.8984375 40.7578125 C60.23933411 41.69538895 60.58023071 42.63296539 60.93145752 43.59895325 C64.39410818 53.10947181 67.93721591 62.58911876 71.5 72.0625 C71.96619247 73.30287018 71.96619247 73.30287018 72.44180298 74.56829834 C74.01203043 78.74581344 75.58342511 82.92288769 77.15576172 87.09960938 C82.02645017 100.03906489 86.87891252 112.98536965 91.72753906 125.93310547 C93.17409528 129.79581867 94.62163499 133.65816158 96.069911 137.52023029 C98.60095341 144.26974797 101.12944537 151.02021287 103.65428448 157.77205372 C104.91972622 161.15584147 106.186295 164.53919745 107.45559692 167.92153931 C108.87895348 171.71457896 110.297109 175.50954297 111.71484375 179.3046875 C112.14844208 180.45792007 112.58204041 181.61115265 113.02877808 182.79933167 C113.61769333 184.3795536 113.61769333 184.3795536 114.21850586 185.99169922 C114.73688271 187.37625809 114.73688271 187.37625809 115.26573181 188.78878784 C116 191 116 191 116 193 C101.15 193 86.3 193 71 193 C68.69 186.27625 66.38 179.5525 64 172.625 C63.26910156 170.50271973 62.53820313 168.38043945 61.78515625 166.19384766 C61.21069485 164.51733573 60.6364604 162.84074601 60.0625 161.1640625 C59.76021484 160.28903076 59.45792969 159.41399902 59.14648438 158.51245117 C58.86224609 157.68028076 58.57800781 156.84811035 58.28515625 155.99072266 C58.03644775 155.26680328 57.78773926 154.54288391 57.53149414 153.79702759 C57 152 57 152 57 150 C33.57 150 10.14 150 -14 150 C-14.99 153.3 -15.98 156.6 -17 160 C-17.86818328 162.56928882 -18.75525683 165.13229756 -19.6640625 167.6875 C-20.02037247 168.69127686 -20.02037247 168.69127686 -20.38388062 169.71533203 C-20.87845444 171.10702224 -21.37419482 172.49829842 -21.87109375 173.88916016 C-22.63312107 176.02273794 -23.39104375 178.15774223 -24.1484375 180.29296875 C-27.85382639 190.70765278 -27.85382639 190.70765278 -29 193 C-43.52 193 -58.04 193 -73 193 C-64.978097 170.08027716 -64.978097 170.08027716 -61.17041016 160.32568359 C-59.26734923 155.43934264 -57.37644306 150.54836614 -55.48828125 145.65625 C-55.13743469 144.74765228 -54.78658813 143.83905457 -54.42510986 142.90292358 C-49.84842029 131.03575088 -45.34248511 119.14164615 -40.83491135 107.24808884 C-40.12413195 105.37270966 -39.41317499 103.49739788 -38.70217896 101.62210083 C-33.86975251 88.87547173 -29.04464275 76.12610238 -24.234375 63.37109375 C-23.86383499 62.38862167 -23.49329498 61.4061496 -23.11152649 60.39390564 C-22.74834824 59.4309407 -22.38516998 58.46797577 -22.01098633 57.47583008 C-21.29899892 55.58805035 -20.58700363 53.70027361 -19.875 51.8125 C-19.35901749 50.44428604 -19.35901749 50.44428604 -18.83261108 49.0484314 C-12.65039869 32.66110603 -6.35205734 16.3223752 0 0 Z M21 50 C18.54324239 56.79004472 16.09005817 63.58137322 13.63916016 70.37353516 C12.80791871 72.67590379 11.97590958 74.97799544 11.14306641 77.27978516 C9.93441645 80.62066234 8.72868852 83.96258282 7.5234375 87.3046875 C7.16067719 88.30547333 6.79791687 89.30625916 6.42416382 90.33737183 C3.12069479 99.51275035 0.0871238 108.73862859 -3 118 C12.84 118 28.68 118 45 118 C43.34468222 110.47792491 43.34468222 110.47792491 41.16821289 103.20825195 C40.81767349 102.16719803 40.46713409 101.1261441 40.10597229 100.05354309 C39.731978 98.95950668 39.3579837 97.86547028 38.97265625 96.73828125 C38.58307236 95.58885544 38.19348846 94.43942963 37.792099 93.25517273 C36.97154197 90.8381923 36.14862934 88.42201044 35.32348633 86.0065918 C34.06366582 82.31591531 32.81356348 78.62204758 31.56445312 74.92773438 C30.7635998 72.5727197 29.96218662 70.21789533 29.16015625 67.86328125 C28.78818619 66.76317215 28.41621613 65.66306305 28.03297424 64.52961731 C26.30649321 59.49406198 24.56439924 54.67085201 22 50 C21.67 50 21.34 50 21 50 Z " fill="#AD00FF" transform="translate(2024,534)"/>
<path d="M0 0 C118.10708599 0 118.10708599 0 136.4375 16.3515625 C150.06650287 30.73016053 154.70529597 47.29511372 154.25390625 66.70703125 C153.51723338 83.22108982 147.09118167 97.78739536 135.11328125 109.15625 C121.1314004 121.35485954 103.7007045 124.35528771 85.67578125 124.1953125 C84.04110901 124.19229126 84.04110901 124.19229126 82.37341309 124.18920898 C78.3530651 124.17884762 74.33277774 124.15092617 70.3125 124.125 C61.299375 124.08375 52.28625 124.0425 43 124 C43 146.77 43 169.54 43 193 C28.81 193 14.62 193 0 193 C0 129.31 0 65.62 0 0 Z M43 34 C43 52.81 43 71.62 43 91 C49.001875 91.04125 55.00375 91.0825 61.1875 91.125 C63.05301514 91.14320801 64.91853027 91.16141602 66.84057617 91.18017578 C86.38179626 91.48682802 86.38179626 91.48682802 104 84 C110.10732252 77.84188894 112.28460728 71.39154433 112.375 62.75 C112.23932887 55.06196955 111.3414651 48.89591174 106.234375 42.94140625 C97.52019541 34.69038188 87.53450083 33.83665725 76.0078125 33.90234375 C74.74892212 33.90385437 74.74892212 33.90385437 73.46459961 33.90539551 C70.35138569 33.91059873 67.23819137 33.92455986 64.125 33.9375 C53.668125 33.9684375 53.668125 33.9684375 43 34 Z " fill="#9C00FF" transform="translate(1633,534)"/>
<path d="M0 0 C44.88 0 89.76 0 136 0 C136 12.21 136 24.42 136 37 C105.31 37 74.62 37 43 37 C43 51.19 43 65.38 43 80 C69.73 80 96.46 80 124 80 C124 91.22 124 102.44 124 114 C97.27 114 70.54 114 43 114 C43 140.07 43 166.14 43 193 C28.81 193 14.62 193 0 193 C0 129.31 0 65.62 0 0 Z " fill="#BC00FF" transform="translate(2300,534)"/>
<path d="M0 0 C44.88 0 89.76 0 136 0 C136 12.21 136 24.42 136 37 C105.31 37 74.62 37 43 37 C43 51.19 43 65.38 43 80 C69.4 80 95.8 80 123 80 C123 91.22 123 102.44 123 114 C96.6 114 70.2 114 43 114 C43 140.07 43 166.14 43 193 C28.81 193 14.62 193 0 193 C0 129.31 0 65.62 0 0 Z " fill="#8100FF" transform="translate(1116,534)"/>
<path d="M0 0 C52.14 0 104.28 0 158 0 C158 12.21 158 24.42 158 37 C139.19 37 120.38 37 101 37 C101 88.48 101 139.96 101 193 C86.48 193 71.96 193 57 193 C57 141.52 57 90.04 57 37 C38.19 37 19.38 37 0 37 C0 24.79 0 12.58 0 0 Z " fill="#B500FF" transform="translate(2121,534)"/>
<path d="M0 0 C14.19 0 28.38 0 43 0 C44 1 44 1 44.12304783 3.55935764 C44.12166514 5.28357142 44.12166514 5.28357142 44.12025452 7.0426178 C44.12162918 8.35660049 44.12300385 9.67058319 44.12442017 11.02438354 C44.12088054 12.49420188 44.11724573 13.96402 44.11352539 15.43383789 C44.11324353 16.97091164 44.11340123 18.50798553 44.1139679 20.0450592 C44.11425591 24.2308286 44.10835852 28.41656959 44.10139394 32.60233235 C44.09516109 36.97190156 44.09455666 41.34147135 44.09336853 45.71104431 C44.09025501 53.99127047 44.08204135 62.2714835 44.07201904 70.55170387 C44.05877349 81.73665809 44.05335816 92.92161588 44.04751682 104.10657597 C44.03810147 121.73772716 44.01818269 139.36885063 44 157 C74.69 157 105.38 157 137 157 C137 168.88 137 180.76 137 193 C91.79 193 46.58 193 0 193 C0 129.31 0 65.62 0 0 Z " fill="#A400FF" transform="translate(1812,534)"/>
<path d="M0 0 C14.19 0 28.38 0 43 0 C43 63.69 43 127.38 43 193 C28.81 193 14.62 193 0 193 C0 129.31 0 65.62 0 0 Z " fill="#8800FF" transform="translate(1275,534)"/>
<path d="M0 0 C8.25 0 16.5 0 25 0 C29.49793965 6.42562807 33.73857506 12.70594468 37.6875 19.4375 C43.60860499 29.41486133 49.77429913 39.20749134 56 49 C59.96 55.27 63.92 61.54 68 68 C68.33 45.56 68.66 23.12 69 0 C76.92 0 84.84 0 93 0 C93 35.97 93 71.94 93 109 C84.75 109 76.5 109 68 109 C60.61220333 100.07888704 60.61220333 100.07888704 58.7265625 95.72265625 C55.90030321 89.61242256 52.39108155 84.08901471 48.75 78.4375 C47.48836532 76.42687246 46.23062215 74.4137984 44.9765625 72.3984375 C44.33493164 71.3681543 43.69330078 70.33787109 43.03222656 69.27636719 C40.8541816 65.76491074 38.68650529 62.2472565 36.5234375 58.7265625 C36.15432251 58.12584427 35.78520752 57.52512604 35.40490723 56.90620422 C33.60561329 53.97669716 31.80863091 51.04579976 30.01464844 48.11303711 C29.37301758 47.06639893 28.73138672 46.01976074 28.0703125 44.94140625 C27.50070801 44.01013916 26.93110352 43.07887207 26.34423828 42.11938477 C25.16953065 40.09673261 25.16953065 40.09673261 24 39 C24.00222061 39.80322189 24.00444122 40.60644379 24.00672913 41.43400574 C24.02678337 49.01126224 24.04200033 56.58850584 24.05181217 64.16578197 C24.05702613 68.06113507 24.06409678 71.95646619 24.07543945 75.85180664 C24.08632118 79.61246773 24.09228804 83.37310772 24.09487724 87.13378334 C24.09672196 88.56706385 24.10032423 90.00034323 24.10573006 91.43361473 C24.11301052 93.44425704 24.11340866 95.45492068 24.11352539 97.46557617 C24.115746 98.60919113 24.11796661 99.75280609 24.12025452 100.93107605 C24 104 24 104 23 109 C15.41 109 7.82 109 0 109 C0 73.03 0 37.06 0 0 Z " fill="#A200FF" transform="translate(1639,805)"/>
<path d="M0 0 C25 0 25 0 30.51953125 5.01953125 C32.27563477 8.27783203 32.27563477 8.27783203 33.8125 11.8125 C34.42725949 13.01938905 35.0523729 14.22105494 35.68725586 15.41748047 C36.9456684 17.81040441 38.15578328 20.21855432 39.33007812 22.65380859 C41.60669718 27.21570051 44.26987487 31.35848938 47.0625 35.625 C54.08931257 46.71996721 61.03955008 57.86328014 68 69 C68.33 46.23 68.66 23.46 69 0 C76.59 0 84.18 0 92 0 C92 35.97 92 71.94 92 109 C83.75 109 75.5 109 67 109 C59.39745082 99.16550978 59.39745082 99.16550978 57.54296875 94.640625 C55.16478326 89.20742151 52.25180476 84.38485896 49 79.4375 C48.00425561 77.87382941 47.01076828 76.30871926 46.01953125 74.7421875 C45.01320853 73.16133883 44.00669516 71.58061152 43 70 C40.89292068 66.68934031 38.78940126 63.37644894 36.6875 60.0625 C36.22021484 59.33023193 35.75292969 58.59796387 35.27148438 57.84350586 C31.34052839 51.64559695 27.70705719 45.35495518 24 39 C23.67 62.1 23.34 85.2 23 109 C15.41 109 7.82 109 0 109 C0 73.03 0 37.06 0 0 Z " fill="#D700FF" transform="translate(2486,805)"/>
<path d="M0 0 C9.219375 -0.04125 18.43875 -0.0825 27.9375 -0.125 C30.83136475 -0.14320801 33.72522949 -0.16141602 36.70678711 -0.18017578 C39.02197077 -0.18602161 41.33715651 -0.19111695 43.65234375 -0.1953125 C44.83703247 -0.20554443 46.02172119 -0.21577637 47.24230957 -0.22631836 C61.88887087 -0.22938025 73.007133 3.33222862 83.7421875 13.5625 C92.59340446 23.11813908 96.45561134 36.12402462 97 49 C97.05994141 50.1446875 97.05994141 50.1446875 97.12109375 51.3125 C97.57648945 68.02820108 93.43846571 83.84785069 81.93359375 96.22265625 C60.45918555 116.77508628 26.55092122 109 0 109 C0 73.03 0 37.06 0 0 Z M25 20 C25 42.44 25 64.88 25 88 C46.23058379 89.50626171 46.23058379 89.50626171 64.53515625 80.73046875 C72.38526599 71.45687245 72.74601396 59.58097867 72 48 C70.77579723 39.25569451 68.08842204 31.1191988 61.03125 25.40625 C50.13104357 18.61336773 37.42122176 20 25 20 Z " fill="#A900FF" transform="translate(1752,805)"/>
<path d="M0 0 C27.06 0 54.12 0 82 0 C82 6.6 82 13.2 82 20 C63.19 20 44.38 20 25 20 C25 27.59 25 35.18 25 43 C42.49 43 59.98 43 78 43 C78 49.27 78 55.54 78 62 C60.51 62 43.02 62 25 62 C25 70.58 25 79.16 25 88 C44.47 88 63.94 88 84 88 C84 94.6 84 101.2 84 108 C82.24625536 109.75374464 79.94851471 109.11982098 77.61271572 109.12442875 C76.83873975 109.12083064 76.06476377 109.11723253 75.26733398 109.11352539 C74.44450204 109.11364593 73.62167009 109.11376646 72.77390385 109.11389065 C70.09794009 109.11314145 67.42204512 109.10551294 64.74609375 109.09765625 C63.09899936 109.09618685 61.45190452 109.09516613 59.80480957 109.09460449 C53.68236595 109.08935137 47.55993231 109.07539029 41.4375 109.0625 C27.763125 109.041875 14.08875 109.02125 0 109 C0 73.03 0 37.06 0 0 Z " fill="#D000FF" transform="translate(2387,805)"/>
<path d="M0 0 C6.65975448 5.09003765 11.38666528 11.45344625 13.25390625 19.72265625 C13.25390625 22.69265625 13.25390625 25.66265625 13.25390625 28.72265625 C5.33390625 28.72265625 -2.58609375 28.72265625 -10.74609375 28.72265625 C-11.73609375 25.42265625 -12.72609375 22.12265625 -13.74609375 18.72265625 C-17.60467971 14.43533852 -22.26037147 13.01931347 -27.94921875 12.53515625 C-33.84912039 12.37461471 -39.23163425 12.86989662 -44.12109375 16.47265625 C-46.17455752 19.31591378 -46.60341487 21.22702381 -46.74609375 24.72265625 C-46.47447303 27.44448819 -46.47447303 27.44448819 -44.74609375 29.72265625 C-37.73482632 33.88318857 -30.21521664 35.68604828 -22.37109375 37.72265625 C4.84231299 44.83146454 4.84231299 44.83146454 13.69140625 55.72265625 C17.80379321 63.61843921 18.52656616 71.99187632 16.6015625 80.66015625 C13.78810881 89.35409041 8.60226152 95.40364328 1.25390625 100.72265625 C-1.9375 102.171875 -1.9375 102.171875 -5.30859375 103.41015625 C-6.98115234 104.03470703 -6.98115234 104.03470703 -8.6875 104.671875 C-21.97715156 109.23754073 -39.99258951 108.7101299 -52.74609375 102.72265625 C-62.92394528 97.70601636 -70.00629623 91.60023937 -73.74609375 80.72265625 C-74.74609375 76.72265625 -74.74609375 76.72265625 -74.74609375 67.72265625 C-66.82609375 67.72265625 -58.90609375 67.72265625 -50.74609375 67.72265625 C-50.08609375 70.69265625 -49.42609375 73.66265625 -48.74609375 76.72265625 C-45.62990851 81.88383806 -42.21554234 84.0193293 -36.55859375 86.03125 C-28.54967366 88.00010952 -20.16228232 87.4464628 -12.74609375 83.72265625 C-9.49278115 81.03867336 -7.9448221 79.17999746 -7.37109375 74.97265625 C-7.86416291 70.69939022 -9.45116674 68.33839047 -12.74609375 65.72265625 C-20.93183104 61.56121393 -30.07454173 59.69346275 -38.9375 57.54296875 C-52.28845626 54.13017993 -61.91330802 49.47183484 -69.62109375 37.91015625 C-72.73798674 29.07895943 -72.19872278 20.38970105 -68.74609375 11.72265625 C-62.38775425 0.89053663 -53.33908863 -3.76764457 -41.4765625 -6.87109375 C-27.3010501 -8.98018286 -12.19942795 -7.96977075 0 0 Z " fill="#8D00FF" transform="translate(1369.74609375,809.27734375)"/>
<path d="M0 0 C27.06 0 54.12 0 82 0 C82 6.6 82 13.2 82 20 C62.86 20 43.72 20 24 20 C24 27.59 24 35.18 24 43 C41.49 43 58.98 43 77 43 C77 49.27 77 55.54 77 62 C59.51 62 42.02 62 24 62 C24 70.58 24 79.16 24 88 C43.47 88 62.94 88 83 88 C83 94.93 83 101.86 83 109 C55.61 109 28.22 109 0 109 C0 73.03 0 37.06 0 0 Z " fill="#B200FF" transform="translate(1907,805)"/>
<path d="M0 0 C8.4510701 7.00549232 13.68361776 15.2604096 16 26 C16 27.65 16 29.3 16 31 C8.08 31 0.16 31 -8 31 C-9.32 28.03 -10.64 25.06 -12 22 C-16.28146809 16.64816489 -21.27970337 13.46562499 -28.08984375 12.61328125 C-36.22295795 12.33806502 -42.69720671 13.28745072 -48.96484375 18.6953125 C-58.0534906 28.18747221 -59.48945074 39.95787097 -59.28125 52.5546875 C-58.90785979 61.24347772 -56.38832479 70.76540495 -50 77 C-43.78788129 82.29022895 -36.42925828 84.31657483 -28.3203125 83.84375 C-22.68828482 82.95358149 -17.90187029 81.28011281 -14 77 C-10.52264154 71.54350667 -8.78573438 66.25007032 -7 60 C0.92 60 8.84 60 17 60 C15.48763399 75.1236601 11.20331357 86.28764528 -0.578125 96.2109375 C-12.94804892 105.34872001 -27.1176452 106.21637555 -42 105 C-54.20184997 102.81311039 -65.25602587 96.76144234 -73 87 C-78.25484362 79.15087323 -82.207932 71.36201042 -84 62 C-84.226875 60.906875 -84.45375 59.81375 -84.6875 58.6875 C-86.21205044 40.69780485 -83.84859511 23.93268574 -72.859375 9.11328125 C-55.26184481 -11.4684455 -22.36890368 -16.11876882 0 0 Z " fill="#C700FF" transform="translate(2310,811)"/>
<path d="M0 0 C2.52197266 -0.34057617 2.52197266 -0.34057617 5.6640625 -0.29296875 C6.78554687 -0.28330078 7.90703125 -0.27363281 9.0625 -0.26367188 C10.238125 -0.23853516 11.41375 -0.21339844 12.625 -0.1875 C13.80835938 -0.17396484 14.99171875 -0.16042969 16.2109375 -0.14648438 C19.14107539 -0.11103916 22.07031459 -0.06162769 25 0 C27.68069306 5.88240332 30.14281092 11.80498739 32.40625 17.859375 C32.72400894 18.70249741 33.04176788 19.54561981 33.36915588 20.41429138 C34.41533611 23.19190327 35.45774919 25.97091153 36.5 28.75 C37.23600926 30.70752746 37.97226122 32.66496368 38.70874023 34.62231445 C39.88079625 37.73735703 41.0526437 40.85247636 42.22349548 43.9679718 C45.32287209 52.21219702 48.44213168 60.44877639 51.56640625 68.68359375 C52.94672819 72.32586378 54.326711 75.96826209 55.70654297 79.61071777 C56.61060363 81.99547482 57.51571469 84.37983393 58.421875 86.76379395 C59.69183023 90.10571381 60.9576979 93.44915493 62.22265625 96.79296875 C62.60619766 97.79919785 62.98973907 98.80542694 63.38490295 99.84214783 C63.73105148 100.75944168 64.07720001 101.67673553 64.43383789 102.62182617 C64.73786026 103.42319504 65.04188263 104.2245639 65.3551178 105.05021667 C66 107 66 107 66 109 C57.42 109 48.84 109 40 109 C37.36 101.41 34.72 93.82 32 86 C18.8 86 5.6 86 -8 86 C-10.64 93.59 -13.28 101.18 -16 109 C-24.25 109 -32.5 109 -41 109 C-40.33040735 104.98244412 -39.83878128 102.15580697 -38.44384766 98.52246094 C-38.12417526 97.68148361 -37.80450287 96.84050629 -37.47514343 95.9740448 C-36.94990837 94.61790825 -36.94990837 94.61790825 -36.4140625 93.234375 C-36.0449324 92.26764359 -35.67580231 91.30091217 -35.29548645 90.30488586 C-34.07725903 87.11787883 -32.85121191 83.93394257 -31.625 80.75 C-30.77557827 78.53333043 -29.92670914 76.31644902 -29.07836914 74.09936523 C-27.75376752 70.63801548 -26.42865902 67.17686718 -25.10139465 63.71653748 C-21.90419488 55.37863802 -18.73582359 47.03018708 -15.58203125 38.67578125 C-14.71083169 36.37074671 -13.83957606 34.06573335 -12.96826172 31.76074219 C-11.7064588 28.42256314 -10.44561138 25.08404186 -9.18804932 21.7442627 C-8.0233416 18.65241254 -6.85399164 15.56235604 -5.68359375 12.47265625 C-5.33859329 11.55309647 -4.99359283 10.63353668 -4.63813782 9.68611145 C-4.31854599 8.84489243 -3.99895416 8.0036734 -3.66967773 7.13696289 C-3.39389389 6.40619034 -3.11811005 5.67541779 -2.83396912 4.92250061 C-2 3 -2 3 0 0 Z M12 29 C8.46847771 36.89498973 5.5343958 44.96292951 2.6875 53.125 C2.32591797 54.1569751 1.96433594 55.1889502 1.59179688 56.25219727 C1.25599609 57.22342529 0.92019531 58.19465332 0.57421875 59.1953125 C0.27088623 60.07203613 -0.03244629 60.94875977 -0.3449707 61.85205078 C-1.09723123 63.94456949 -1.09723123 63.94456949 -1 66 C7.58 66 16.16 66 25 66 C24.20566693 61.23400155 23.1279553 57.11787538 21.49609375 52.6328125 C21.2533522 51.95322479 21.01061066 51.27363708 20.76051331 50.57345581 C19.9909039 48.42224016 19.21432677 46.27361853 18.4375 44.125 C17.91164544 42.6590205 17.3862501 41.19287619 16.86132812 39.7265625 C15.57952211 36.14911361 14.29146487 32.57397278 13 29 C12.67 29 12.34 29 12 29 Z " fill="#9B00FF" transform="translate(1565,805)"/>
<path d="M0 0 C8.58 0 17.16 0 26 0 C35.01543284 23.6491789 43.86482502 47.3585582 52.68276978 71.08200073 C54.67146861 76.43158644 56.6633402 81.77994327 58.66352844 87.12524414 C59.40619661 89.11029243 60.14759413 91.09580939 60.88842773 93.08154297 C61.72663396 95.3275765 62.56712418 97.57275961 63.41040039 99.81689453 C63.76352295 100.7654834 64.11664551 101.71407227 64.48046875 102.69140625 C64.77848389 103.48748291 65.07649902 104.28355957 65.38354492 105.10375977 C66 107 66 107 66 109 C57.42 109 48.84 109 40 109 C38.845 105.596875 37.69 102.19375 36.5 98.6875 C35.95182617 97.08394653 35.95182617 97.08394653 35.39257812 95.44799805 C35.10833984 94.60277588 34.82410156 93.75755371 34.53125 92.88671875 C34.23798828 92.02264404 33.94472656 91.15856934 33.64257812 90.26831055 C33 88 33 88 33 85 C19.47 85 5.94 85 -8 85 C-8.99 88.63 -9.98 92.26 -11 96 C-12.55274536 100.38705238 -14.27893252 104.67407364 -16 109 C-24.25 109 -32.5 109 -41 109 C-39.15800696 102.8600232 -37.32069791 96.89485248 -35.05859375 90.92578125 C-34.77866074 90.17932846 -34.49872772 89.43287567 -34.21031189 88.6638031 C-33.28955583 86.21202993 -32.36374641 83.76220376 -31.4375 81.3125 C-30.782604 79.57393498 -30.12782145 77.83532722 -29.47314453 76.09667969 C-24.14578478 61.96645114 -18.76658427 47.85582602 -13.375 33.75 C-12.80070755 32.24561874 -12.80070755 32.24561874 -12.21481323 30.71084595 C-11.11137571 27.82207732 -10.00533106 24.93432088 -8.8984375 22.046875 C-8.57810043 21.20764999 -8.25776337 20.36842499 -7.92771912 19.50376892 C-5.40692816 12.94242454 -2.70680558 6.49633339 0 0 Z M12 28 C10.146619 33.25036144 8.2952588 38.50142922 6.44580078 43.75317383 C5.81582805 45.54113205 5.18529514 47.328893 4.55419922 49.11645508 C3.64925534 51.67998919 2.74630232 54.24421682 1.84375 56.80859375 C1.4172113 58.01484657 1.4172113 58.01484657 0.98205566 59.24546814 C-0.39283999 62.54853321 -0.39283999 62.54853321 -1 66 C7.91 66 16.82 66 26 66 C24.33316283 60.907736 22.66278808 55.81693778 20.98291016 50.72900391 C20.4123844 48.99729426 19.84401337 47.26487319 19.27783203 45.53173828 C18.46429946 43.04269904 17.64308777 40.5563094 16.8203125 38.0703125 C16.56814972 37.29317902 16.31598694 36.51604553 16.05618286 35.71536255 C14.68419114 31.47897746 14.68419114 31.47897746 12 28 Z " fill="#8600FF" transform="translate(1227,805)"/>
<path d="M0 0 C25.41 0 50.82 0 77 0 C77 6.6 77 13.2 77 20 C59.84 20 42.68 20 25 20 C25 28.25 25 36.5 25 45 C39.85 45 54.7 45 70 45 C70 51.27 70 57.54 70 64 C55.15 64 40.3 64 25 64 C25 78.85 25 93.7 25 109 C16.75 109 8.5 109 0 109 C0 73.03 0 37.06 0 0 Z " fill="#BE00FF" transform="translate(2095,805)"/>
<path d="M0 0 C25.41 0 50.82 0 77 0 C77 6.6 77 13.2 77 20 C59.84 20 42.68 20 25 20 C25 28.25 25 36.5 25 45 C39.85 45 54.7 45 70 45 C70 51.27 70 57.54 70 64 C55.15 64 40.3 64 25 64 C25 78.85 25 93.7 25 109 C16.75 109 8.5 109 0 109 C0 73.03 0 37.06 0 0 Z " fill="#B800FF" transform="translate(2005,805)"/>
<path d="M0 0 C25.41 0 50.82 0 77 0 C77 6.6 77 13.2 77 20 C59.84 20 42.68 20 25 20 C25 28.25 25 36.5 25 45 C39.85 45 54.7 45 70 45 C70 51.27 70 57.54 70 64 C55.15 64 40.3 64 25 64 C25 78.85 25 93.7 25 109 C16.75 109 8.5 109 0 109 C0 73.03 0 37.06 0 0 Z " fill="#8000FF" transform="translate(1116,805)"/>
<path d="M0 0 C29.7 0 59.4 0 90 0 C90 6.6 90 13.2 90 20 C79.11 20 68.22 20 57 20 C57 49.37 57 78.74 57 109 C48.75 109 40.5 109 32 109 C32 79.63 32 50.26 32 20 C21.44 20 10.88 20 0 20 C0 13.4 0 6.8 0 0 Z " fill="#DE00FF" transform="translate(2590,805)"/>
<path d="M0 0 C29.37 0 58.74 0 89 0 C89 6.6 89 13.2 89 20 C78.44 20 67.88 20 57 20 C57 49.37 57 78.74 57 109 C48.75 109 40.5 109 32 109 C32 79.63 32 50.26 32 20 C21.44 20 10.88 20 0 20 C0 13.4 0 6.8 0 0 Z " fill="#9300FF" transform="translate(1392,805)"/>
<path d="M0 0 C8.25 0 16.5 0 25 0 C25 35.97 25 71.94 25 109 C16.75 109 8.5 109 0 109 C0 73.03 0 37.06 0 0 Z " fill="#C200FF" transform="translate(2185,805)"/>
<path d="M0 0 C8.25 0 16.5 0 25 0 C25 35.97 25 71.94 25 109 C17.08 109 9.16 109 1 109 C0 108 0 108 -0.12304783 106.19027615 C-0.12212604 105.3947688 -0.12120424 104.59926146 -0.12025452 103.77964783 C-0.12162918 102.86954453 -0.12300385 101.95944122 -0.12442017 101.02175903 C-0.12082489 100.01547455 -0.11722961 99.00919006 -0.11352539 97.97241211 C-0.11367142 96.91888046 -0.11381744 95.86534882 -0.1139679 94.77989197 C-0.11326826 91.279022 -0.10547348 87.77820448 -0.09765625 84.27734375 C-0.09579225 81.85738657 -0.09436826 79.43742901 -0.09336853 77.01747131 C-0.08954192 70.63384976 -0.07971041 64.25025079 -0.06866455 57.86663818 C-0.05845351 51.35836086 -0.05387157 44.8500799 -0.04882812 38.34179688 C-0.03808827 25.56118637 -0.02049032 12.78059859 0 0 Z " fill="#CC00FF" transform="translate(2342,805)"/>
</svg>
