<svg version="1.1" xmlns="http://www.w3.org/2000/svg" width="1100" height="1305"><path d="M0 0C591.416533-.012065 595.941358-.002061 599.201741-.014313 623.264741-.09779 643.567773 3.080752 661.696533 20.507935 667.248787 26.19583 671.437263 32.35488 675.071533 39.382935 675.393396 39.994031 675.715259 40.605127 676.046875 41.234741 681.463476 52.327241 682.136763 64.089863 682.07685 76.212201 682.199111 949.619518 682.201955 951.109537 682.21253 952.599486 682.356768 974.443373 675.544652 991.885284 660.493408 1007.843872 642.171595 1025.619671 620.545712 1027.106636 596.317139 1027.015869 1.795908 1027.019083-1.474232 1027.01793-4.744765 1027.030182-29.644572 1027.116291-48.700375 1023.343786-67.416748 1005.49231-78.929523 993.420662-86.421268 976.861656-86.432268 960.094904-86.800139 77.294735-86.803594 75.801314-86.81476 74.307964-86.957473 53.877295-80.673952 35.432018-66.303467 20.507935-46.986009 1.907044-25.449327-.09564 0 0Z" fill="#b200fe" transform="translate(295.303467 208.492065)"/><path d="M0 0C161.04 0 322.08 0 488 0 488 38.94 488 77.88 488 118 371.84 118 255.68 118 136 118 136 180.04 136 242.08 136 306 246.22 306 356.44 306 470 306 470 346.59 470 387.18 470 429 359.45 429 248.9 429 135 429 135 532.62 135 636.24 135 743 90.45 743 45.9 743 0 743Z" fill="#1e1e1e" transform="translate(349 349)"/></svg>